<svg xmlns="http://www.w3.org/2000/svg" width="1360" height="420" viewBox="0 0 1360 420" role="img" aria-labelledby="title desc">
  <title id="title">Team 1 software flow</title>
  <desc id="desc">Flusso software Team 1 con logica completa su server e controllo diretto RoboMaster via SDK.</desc>
  <rect width="1360" height="420" fill="#f8fafc"/>

  <text x="36" y="54" font-family="Segoe UI, Arial, sans-serif" font-size="34" font-weight="700" fill="#0f172a">TEAM 1 - FLUSSO SOFTWARE</text>

  <rect x="30" y="132" rx="14" ry="14" width="190" height="120" fill="#dbeafe" stroke="#1d4ed8" stroke-width="2"/>
  <text x="125" y="175" text-anchor="middle" font-family="Segoe UI, Arial, sans-serif" font-size="20" font-weight="700" fill="#0f172a">DJI Fly</text>
  <text x="125" y="202" text-anchor="middle" font-family="Segoe UI, Arial, sans-serif" font-size="15" fill="#334155">stream app</text>

  <rect x="250" y="132" rx="14" ry="14" width="190" height="120" fill="#e0f2fe" stroke="#0284c7" stroke-width="2"/>
  <text x="345" y="175" text-anchor="middle" font-family="Segoe UI, Arial, sans-serif" font-size="20" font-weight="700" fill="#0f172a">ADB + scrcpy</text>
  <text x="345" y="202" text-anchor="middle" font-family="Segoe UI, Arial, sans-serif" font-size="15" fill="#334155">video bridge</text>

  <rect x="470" y="132" rx="14" ry="14" width="210" height="120" fill="#dcfce7" stroke="#15803d" stroke-width="2"/>
  <text x="575" y="172" text-anchor="middle" font-family="Segoe UI, Arial, sans-serif" font-size="20" font-weight="700" fill="#0f172a">capture layer</text>
  <text x="575" y="198" text-anchor="middle" font-family="Segoe UI, Arial, sans-serif" font-size="15" fill="#334155">detector/capture.py</text>

  <rect x="710" y="132" rx="14" ry="14" width="230" height="120" fill="#dcfce7" stroke="#15803d" stroke-width="2"/>
  <text x="825" y="168" text-anchor="middle" font-family="Segoe UI, Arial, sans-serif" font-size="20" font-weight="700" fill="#0f172a">server decisione</text>
  <text x="825" y="194" text-anchor="middle" font-family="Segoe UI, Arial, sans-serif" font-size="15" fill="#334155">server/server.py</text>
  <text x="825" y="216" text-anchor="middle" font-family="Segoe UI, Arial, sans-serif" font-size="15" fill="#334155">ArUco + solvePnP + HUD</text>

  <rect x="970" y="132" rx="14" ry="14" width="190" height="120" fill="#dcfce7" stroke="#15803d" stroke-width="2"/>
  <text x="1065" y="172" text-anchor="middle" font-family="Segoe UI, Arial, sans-serif" font-size="20" font-weight="700" fill="#0f172a">RoboMaster API</text>
  <text x="1065" y="198" text-anchor="middle" font-family="Segoe UI, Arial, sans-serif" font-size="15" fill="#334155">team1/robomaster_api.py</text>

  <rect x="1190" y="132" rx="14" ry="14" width="150" height="120" fill="#ffedd5" stroke="#c2410c" stroke-width="2"/>
  <text x="1265" y="175" text-anchor="middle" font-family="Segoe UI, Arial, sans-serif" font-size="20" font-weight="700" fill="#0f172a">DJI SDK</text>
  <text x="1265" y="202" text-anchor="middle" font-family="Segoe UI, Arial, sans-serif" font-size="15" fill="#334155">drive_speed</text>

  <line x1="220" y1="192" x2="250" y2="192" stroke="#334155" stroke-width="4"/>
  <polygon points="250,192 236,184 236,200" fill="#334155"/>
  <line x1="440" y1="192" x2="470" y2="192" stroke="#334155" stroke-width="4"/>
  <polygon points="470,192 456,184 456,200" fill="#334155"/>
  <line x1="680" y1="192" x2="710" y2="192" stroke="#334155" stroke-width="4"/>
  <polygon points="710,192 696,184 696,200" fill="#334155"/>
  <line x1="940" y1="192" x2="970" y2="192" stroke="#334155" stroke-width="4"/>
  <polygon points="970,192 956,184 956,200" fill="#334155"/>
  <line x1="1160" y1="192" x2="1190" y2="192" stroke="#334155" stroke-width="4"/>
  <polygon points="1190,192 1176,184 1176,200" fill="#334155"/>

  <text x="345" y="286" text-anchor="middle" font-family="Segoe UI, Arial, sans-serif" font-size="14" fill="#475569">frame stream</text>
  <text x="825" y="286" text-anchor="middle" font-family="Segoe UI, Arial, sans-serif" font-size="14" fill="#475569">stato marker + distanza</text>
  <text x="1065" y="286" text-anchor="middle" font-family="Segoe UI, Arial, sans-serif" font-size="14" fill="#475569">cmd + v_mult</text>
</svg>
